<?xml version="1.0" encoding="iso-8859-1"?>
<!-- Uploaded to: SVG Repo, www.svgrepo.com, Generator: SVG Repo Mixer Tools -->
<svg fill="#000000" height="800px" width="800px" version="1.1" id="Layer_1" xmlns="http://www.w3.org/2000/svg" xmlns:xlink="http://www.w3.org/1999/xlink" 
	 viewBox="0 0 217.818 217.818" xml:space="preserve">
<g>
	<g>
		<g>
			<path d="M178.845,186.694c-0.108-0.112-0.256-0.18-0.38-0.272c14.532-16.408,23.384-37.956,23.384-61.544
				c0-23.716-8.944-45.376-23.616-61.816l10.62,6.112l1.368,0.444l1.58-1.16l0.204-0.3c0.244-0.36,0.468-0.736,0.676-1.136
				c7.384-14.704,7.068-29.356-0.94-43.552c-1.956-3.468-4.272-6.536-6.904-9.224c2.28-5.212,1.096-10.708-2.844-13.108
				c-3.824-2.332-9.052-0.98-12.632,3.148c-0.616-0.232-1.212-0.488-1.844-0.7c-11.44-4.028-22.924-3.408-34.148,1.848
				c-8.204,3.836-14.808,9.916-19.628,18.076l-0.984,1.664l2.156,1.36c0.276,0.184,0.52,0.34,0.768,0.484l9.208,5.316
				c0.84,0.484,1.684,0.968,2.524,1.456c-5.98-1.212-12.164-1.856-18.5-1.856c-8.668,0-17.052,1.22-25.02,3.448
				c4.856-2.804,9.72-5.6,14.576-8.408c0.484-0.276,0.856-0.624,1.352-1.08l0.788-0.948l-0.256-1.764l-0.304-0.536
				c-0.316-0.552-0.636-1.096-1-1.616C90.685,8.982,79.081,2.278,64.549,1.106c-6.688-0.544-12.836,0.38-18.052,2.648
				c-0.096,0.028-0.192,0.076-0.288,0.104c-3.564-3.784-8.54-4.968-12.24-2.72c-3.684,2.24-4.924,7.204-3.208,12.104
				C19.417,24.106,14.765,37.618,17.029,53.454c0.784,5.488,2.68,10.612,5.632,15.232l1.04,1.616l17.496-10.48
				c0.216-0.056,0.58-0.14,0.94-0.356c0.668-0.384,1.34-0.772,2.008-1.16c-17.364,16.896-28.176,40.488-28.176,66.568
				c0,24.12,9.24,46.12,24.364,62.656l-10.672,16.132c-1.672,1.744-2.448,3.94-2.18,6.188c0.276,2.344,1.7,4.496,3.908,5.912
				c1.824,1.164,3.996,1.724,6.14,1.724c2.916,0,5.78-1.036,7.632-2.976l14.608-10.796c14.268,8.924,31.108,14.104,49.14,14.104
				c18.468,0,35.684-5.436,50.168-14.764l15.34,11.296c1.972,2.052,4.912,3.124,7.872,3.124c2.132,0,4.28-0.56,6.084-1.712
				c2.208-1.416,3.628-3.568,3.908-5.912c0.268-2.248-0.508-4.444-2.024-5.988L178.845,186.694z M180.513,3.562
				c2.332,1.416,3.192,4.728,2.248,8.096l-3.344-2.036c-1.708-1.224-3.512-2.328-5.42-3.3l-1.712-1.04
				C174.865,2.862,178.137,2.122,180.513,3.562z M135.041,9.03c10.252-4.8,20.736-5.36,31.188-1.688
				c9.668,3.196,17.088,9.276,22.056,18.084c5.748,10.192,7.08,20.652,4.148,31.184l-68.492-39.748
				C127.161,13.658,130.801,11.014,135.041,9.03z M126.865,28.898l-8.696-5.02c1.484-2.296,3.168-4.304,4.948-6.18l68.98,40.032
				c-0.732,2.376-1.604,4.752-2.772,7.132l-24.16-13.896c-6.356-4.848-13.348-8.896-20.836-11.996
				C138.505,35.614,132.685,32.258,126.865,28.898z M35.441,3.562c0.792-0.484,1.704-0.716,2.66-0.716
				c1.692,0,3.52,0.756,5.116,2.084c-3.528,1.432-6.904,3.528-10.104,6.212C32.401,7.954,33.229,4.906,35.441,3.562z M20.953,52.894
				c-2.12-14.816,2.328-27.42,13.208-37.472c4.236-3.908,8.624-6.472,13.66-7.936c3.948-1.7,8.332-2.556,13.076-2.556
				c1.088,0,2.2,0.044,3.324,0.132c9.98,0.808,18.452,4.468,25.296,10.916l-68.32,38.204C21.121,53.75,21.017,53.334,20.953,52.894z
				 M40.345,55.946l-15.336,8.956c-1.7-2.996-2.868-6.156-3.592-9.544l68.908-38.532c1.952,1.94,3.788,4.068,5.46,6.476
				c0.104,0.152,0.208,0.308,0.304,0.464C77.453,34.53,58.801,45.286,40.345,55.946z M43.293,212.39
				c-2.452,2.556-7.22,3.016-10.38,0.984c-1.512-0.964-2.444-2.332-2.624-3.852c-0.164-1.392,0.336-2.768,1.572-4.084l10.46-15.812
				c4.52,4.648,9.508,8.836,14.912,12.46L43.293,212.39z M108.905,213.85c-49.056,0-88.968-39.912-88.968-88.972
				s39.916-88.972,88.972-88.972c11.92,0,23.296,2.372,33.696,6.648c2.18,1.256,4.36,2.516,6.54,3.772l13.804,7.944
				c21.216,16.276,34.928,41.864,34.928,70.608C197.877,173.938,157.961,213.85,108.905,213.85z M189.465,209.522
				c-0.176,1.52-1.112,2.888-2.624,3.852c-3.164,2.028-7.916,1.576-10.564-1.144l-14.704-10.832
				c5.468-3.776,10.504-8.124,15.04-12.952c0.008,0.008,0.02,0.012,0.024,0.016l11.412,17.172
				C189.129,206.75,189.629,208.13,189.465,209.522z"/>
			<path d="M179.977,124.986c0.02-18.916-7.272-36.724-20.536-50.128c-13.372-13.516-31.296-20.968-50.476-20.988
				c-0.024,0-0.044,0-0.068,0c-19.052,0-36.908,7.36-50.272,20.724c-13.416,13.416-20.8,31.272-20.788,50.272
				c-0.004,39.128,31.8,70.992,70.9,71.024c0.02,0,0.036,0,0.06,0c34.688-0.004,63.632-24.896,69.888-57.704
				c0.036,0.008,0.068,0.024,0.104,0.032c-0.008-0.3,0.008-0.6,0.036-0.904c-0.004,0-0.004,0-0.008-0.004
				C179.533,133.298,179.973,129.194,179.977,124.986z M57.897,79.602c2.64-0.524,5.292-0.944,7.964-1.1
				c0.764-0.048,1.504-0.068,2.228-0.068c15.344,0,20.728,9.84,22.36,14.224c1.1,2.964,1.7,6.32,2.276,9.564
				c0.412,2.316,0.908,4.652,1.52,6.916l-0.236-0.236c-0.436-0.444-1.164-0.444-1.6,0c-0.44,0.448-0.44,1.164,0.008,1.608
				l3.844,3.844c0.472,0.776,1.008,1.464,1.584,2.096c-0.804,1.084-1.496,2.26-1.952,3.572c-0.18,0.016-0.364,0.016-0.576,0.016
				c-2.212-0.056-4.44-0.08-6.656-0.084c-1.652-9.596-7.592-15.432-12.712-17.688c-5.98-2.628-12.496-1.936-18.244-1.316
				l-13.2,1.424C47.401,94.038,51.913,86.33,57.897,79.602z M104.905,83.418l0.008-7.192c0-0.708,0-1.376,0.144-1.948
				c0.276-1.084,0.96-1.648,2.036-1.672c1.012,0.052,1.868,0.568,2.168,1.736c0.128,0.508,0.124,1.112,0.12,1.752v9.324
				c0.004,9.004,0.004,18.008,0.052,27.012l0.004,0.94l0.928,0.168c5.268,0.94,9.096,5.504,9.096,10.848
				c0,2.768-1.06,5.272-2.752,7.212l-15.484-15.484c0.888-0.78,1.86-1.468,2.98-1.932l0.648-0.516l0.068-0.676
				c0.02-0.176,0.036-0.356,0.032-0.552C104.873,102.762,104.889,93.09,104.905,83.418z M115.061,133.154
				c-1.856,1.412-4.14,2.28-6.644,2.28c-4.844,0-9.064-3.14-10.504-7.812l-0.188-0.612l-0.62-0.156
				c-0.396-0.096-0.796-0.144-1.22-0.144c-0.02,0-0.04,0-0.06,0c-6.212,0.036-12.424,0.032-18.628,0.028l-4.908-0.004l-0.476,0.004
				c-0.368,0.012-0.748,0.02-1.128-0.028c-1.384-0.148-2.248-1.024-2.196-2.224c0.056-1.348,0.732-2.056,2.068-2.164
				c1.496-0.124,3.052-0.1,4.556-0.084l1.828,0.012l4.952-0.016c4.392-0.024,8.92-0.044,13.372,0.072
				c0.632,0.032,1.232-0.044,1.784-0.184l0.628-0.16l0.18-0.624c0.38-1.324,1.036-2.496,1.828-3.56L115.061,133.154z
				 M44.145,103.406l13.66-1.476c5.916-0.64,12.036-1.296,17.788,1.24c6.084,2.68,10.76,9.22,12.128,16.784
				c-1.96-0.004-3.916,0.004-5.836,0.012l-4.948,0.02l-1.796-0.016c-1.564-0.02-3.172-0.04-4.768,0.092
				c-2.132,0.172-3.544,1.484-3.964,3.428c-1.536-0.328-3.072-0.58-4.528-0.684c-5.484-0.4-10.488,0.36-15.328,1.092
				c-1.268,0.192-2.536,0.384-3.804,0.556c-0.676,0.092-1.372,0.152-2.064,0.22C40.701,117.33,41.913,110.182,44.145,103.406z
				 M41.205,132.99c2.844-0.248,5.68-0.508,8.488-0.832l0.332-0.036c4.4-0.508,8.944-1.04,13.624,0.208
				c3.436,0.916,6.752,3.296,7.544,5.416c0.272,0.736,0.228,1.388-0.148,1.936c-0.656,0.988-2.22,1.572-3.756,2.084
				c-6.988,2.304-14.84,3.788-23.124,4.508C42.753,142.014,41.749,137.574,41.205,132.99z M44.497,147.162
				c8.252-0.748,16.092-2.232,23.076-4.536c1.688-0.56,3.412-1.212,4.228-2.432c0.54-0.796,0.62-1.752,0.244-2.764
				c-0.9-2.404-4.408-4.968-8.156-5.968c-4.844-1.288-9.484-0.752-13.964-0.236l-0.328,0.04c-2.82,0.328-5.668,0.584-8.524,0.832
				c-0.228-2.14-0.336-4.316-0.356-6.512c0.724-0.068,1.448-0.132,2.156-0.228c1.28-0.172,2.552-0.364,3.82-0.556
				c4.796-0.728,9.752-1.48,15.132-1.084c1.42,0.104,2.912,0.356,4.408,0.672c0,0.004,0,0.004,0,0.008
				c-0.096,2.412,1.636,4.288,4.216,4.576c0.472,0.048,0.94,0.044,1.416,0.036l0.436-0.004l4.74,0.004
				c0.912,0.728,1.716,1.504,2.268,2.364c1.132,1.752,1.228,3.504,1.184,4.832c-0.284,8.28-7.376,15.172-18.496,17.984
				c-4.204,1.064-8.976,1.46-13.952,1.352C46.681,152.846,45.497,150.05,44.497,147.162z M48.505,156.506
				c0.252,0.016,0.5,0.036,0.744,0.036c4.616,0,9.02-0.484,12.952-1.48c11.536-2.916,18.884-10.136,19.184-18.836
				c0.048-1.464-0.06-3.396-1.324-5.356c-0.432-0.668-1.016-1.28-1.66-1.872c5.812,0.008,11.624,0.016,17.44-0.024
				c0.048,0.004,0.088,0,0.132,0.004c1.736,4.74,5.92,8.008,10.844,8.6c-1.036,1.22-2.044,2.528-2.992,3.868
				c-11.068,15.668-24.36,27.716-38.848,35.556C58.249,171.322,52.641,164.366,48.505,156.506z M108.797,193.046
				c-0.02,0.004-0.04,0.004-0.06,0.004c-9.396-0.008-18.352-1.932-26.5-5.4c5.6-3.8,10.428-9.68,15.104-15.448
				c3.756-4.632,7.644-9.424,11.896-13.076c0.508-0.428,0.84-0.568,1.02-0.376c0.264,0.28,0.296,1.044,0.312,1.372
				c0.18,4.152-0.1,8.384-0.376,12.472c-0.22,3.284-0.444,6.68-0.432,10.032c0.004,2.704,0.268,6.524,1.136,10.316
				C110.193,192.962,109.505,193.046,108.797,193.046z M111.841,192.898c-0.724-3.032-1.168-6.452-1.18-10.268
				c-0.012-3.324,0.216-6.704,0.432-9.968c0.272-4.116,0.556-8.372,0.376-12.576c-0.024-0.74-0.12-1.496-0.552-1.952
				c-0.388-0.416-1.088-0.704-2.268,0.308c-4.312,3.704-8.228,8.528-12.012,13.192c-4.76,5.868-9.68,11.848-15.364,15.552
				c-5.62-2.496-10.852-5.704-15.552-9.556c14.496-7.908,27.784-19.988,38.856-35.66c1.068-1.512,2.208-2.984,3.376-4.304
				c0.156,0.004,0.308,0.036,0.468,0.036c3.108,0,5.936-1.116,8.204-2.912c0.272,0.196,0.532,0.456,0.792,0.716l0.512,0.512
				c1.308,1.576,2.44,3.996,3.36,7.36c2.168,7.932,2.84,16.584,1.948,25.028c-0.112,1.052-0.248,2.108-0.384,3.172
				c-0.568,4.428-1.148,9.012-0.076,13.252c0.624,2.448,1.752,4.46,2.828,6.048C121.169,192.002,116.573,192.686,111.841,192.898z
				 M126.541,190.638c-1.088-1.556-2.256-3.564-2.884-6.032c-1.036-4.072-0.464-8.568,0.088-12.916
				c0.136-1.068,0.272-2.132,0.384-3.192c0.908-8.552,0.224-17.32-1.972-25.364c-0.488-1.788-1.064-3.256-1.676-4.564l9.316,9.32
				c1.196,13.876,3.256,27.608,8.2,38.536C134.341,188.158,130.517,189.57,126.541,190.638z M146.225,181.858
				c0.964-3.308,2.496-6.224,4.76-8.188c2.56-2.22,5.388-2.728,7.888-2.544C155.105,175.182,150.881,178.806,146.225,181.858z
				 M176.081,136.41c-8.156-3.016-11.8-8.88-13.188-12c-1.312-2.952-2.076-6.304-2.812-9.548c-0.752-3.3-1.528-6.716-2.892-9.756
				c-1.8-4.02-5.54-7.108-8.892-7.352c-2.024-0.16-3.828,0.768-5.02,2.656c-1.3,2.06-1.616,4.868-1.812,7.34
				c-0.868,11.076-0.416,22.248,1.348,33.208c0.048,0.248,0.296,0.42,0.52,0.38c0.248-0.044,0.416-0.272,0.38-0.52
				c-1.752-10.892-2.204-21.992-1.34-32.996c0.184-2.364,0.484-5.044,1.672-6.924c1.008-1.584,2.416-2.36,4.192-2.236
				c3.036,0.22,6.452,3.084,8.124,6.812c1.324,2.964,2.092,6.336,2.836,9.592c0.748,3.28,1.52,6.676,2.868,9.712
				c1.456,3.272,5.296,9.412,13.88,12.52c-1.028,5.6-2.76,10.94-5.076,15.964c-7.196-4.86-13-11.868-16.56-20.484
				c-0.524-1.264-1.604-3.428-2.984-3.736c-0.356-0.084-0.884-0.072-1.416,0.416c-1.032,0.94-1.044,2.9-0.964,4.288
				c0.444,7.736,2.096,15.396,4.768,22.148c0.088,0.232,0.356,0.36,0.588,0.252c0.232-0.092,0.348-0.356,0.252-0.588
				c-2.64-6.664-4.264-14.228-4.708-21.868c-0.04-0.692-0.16-2.804,0.668-3.564c0.272-0.248,0.476-0.24,0.612-0.208
				c0.68,0.152,1.6,1.408,2.344,3.196c3.644,8.828,9.604,16,16.996,20.964c-2.84,5.94-6.5,11.392-10.864,16.236
				c-3.468-0.384-6.696,0.476-9.212,2.656c-2.604,2.256-4.28,5.692-5.264,9.54c-2.036,1.28-4.144,2.448-6.316,3.512
				c-4.756-10.528-6.82-23.728-8.016-37.148l16.248,16.248c0.22,0.224,0.512,0.332,0.8,0.332c0.288,0,0.584-0.108,0.8-0.332
				c0.444-0.44,0.444-1.16,0-1.6l-18.152-18.148c-0.02-0.248-0.044-0.496-0.064-0.744c-0.856-10.94-1.496-22.04-1.908-32.984
				c-0.38-9.988-0.136-20.14,4.168-26.748c1.612-2.472,3.772-4.38,5.86-6.228c3.124-2.764,6.272-5.692,7.608-10.444
				c-0.28-0.12-0.552-0.24-0.812-0.412c-1.22,4.596-4.196,7.344-7.396,10.176c-2.132,1.888-4.336,3.836-6.016,6.416
				c-4.668,7.152-4.676,17.828-4.316,27.268c0.408,10.856,1.044,21.856,1.884,32.708l-11.188-11.188
				c2.1-2.352,3.416-5.42,3.416-8.816c0-6.124-4.164-11.4-10.036-12.88c-0.044-8.696-0.044-17.396-0.044-26.088l-0.004-9
				l0.004-0.312c0.004-0.72,0.008-1.536-0.196-2.332c-0.572-2.192-2.352-3.496-4.408-3.432c-2.092,0.04-3.66,1.304-4.188,3.38
				c-0.22,0.848-0.216,1.732-0.216,2.636l-0.012,7.06c-0.016,9.648-0.028,19.3,0.052,28.96c-1.144,0.548-2.144,1.296-3.072,2.128
				l-4.04-4.04c-0.864-2.676-1.444-5.56-1.948-8.404c-0.584-3.28-1.192-6.676-2.32-9.72c-1.704-4.568-7.296-14.812-23.2-14.812
				c-0.74,0-1.504,0.04-2.292,0.068c-2.876,0.092-5.104,0.4-6.736,0.708c0.528-0.564,1.004-1.16,1.552-1.708
				c5.244-5.244,11.232-9.464,17.7-12.692c7.524,5.32,13.652,12.12,17.592,20.032c0.516,1.036,1.904,3.5,3.596,3.952
				c0.184,0.048,0.364,0.072,0.54,0.072c0.392,0,0.76-0.116,1.108-0.348c1.304-0.872,1.308-2.864,1.2-4.284
				c-0.596-7.812-2.688-15.664-6.048-22.704c-0.108-0.232-0.384-0.308-0.604-0.216c-0.228,0.108-0.32,0.38-0.216,0.604
				c3.312,6.936,5.376,14.68,5.96,22.384c0.148,1.876-0.112,3.004-0.792,3.456c-0.288,0.196-0.588,0.248-0.916,0.156
				c-1.092-0.288-2.276-1.988-3.02-3.48c-3.936-7.9-10.028-14.7-17.484-20.06c9.12-4.38,19.18-6.768,29.648-6.768
				c0.024,0,0.044,0,0.068,0c8.948,0.008,17.596,1.732,25.612,4.96c-0.14,1.044-0.344,2.068-0.696,3.004
				c-0.972,2.592-2.64,4.532-4.256,6.404c-0.38,0.44-0.756,0.884-1.128,1.332c-5.94,7.168-10.056,17.1-11.584,27.98
				c-0.036,0.248,0.136,0.476,0.388,0.512c0.02,0.004,0.044,0.004,0.064,0.004c0.224,0,0.416-0.164,0.448-0.392
				c1.508-10.712,5.552-20.488,11.384-27.528c0.368-0.444,0.748-0.88,1.12-1.316c1.668-1.932,3.392-3.932,4.42-6.676
				c0.352-0.932,0.572-1.948,0.724-2.988c8.14,3.412,15.596,8.408,21.968,14.848c9.928,10.04,16.316,22.664,18.664,36.344
				c-0.028-0.012-0.06-0.016-0.088-0.028c-6.212-2.344-11.052-8.552-12.336-15.808c-0.044-0.248-0.272-0.436-0.524-0.368
				c-0.248,0.044-0.412,0.276-0.368,0.524c1.62,9.188,7.732,14.548,12.908,16.504c0.184,0.068,0.368,0.112,0.552,0.172
				c0.556,3.544,0.912,7.14,0.908,10.796C177.129,128.878,176.721,132.682,176.081,136.41z"/>
			<path d="M169.145,65.246c-15.936-16.108-37.304-24.996-60.168-25.016c-0.028,0-0.052,0-0.08,0
				c-22.716,0-43.996,8.768-59.924,24.7c-16,15.992-24.8,37.276-24.784,59.928c-0.004,46.648,37.908,84.628,84.512,84.664
				c0.024,0,0.048,0,0.072,0c46.752,0,84.808-37.9,84.856-84.516C193.649,102.454,184.957,81.23,169.145,65.246z M108.773,208.39
				c-0.02,0-0.048,0-0.072,0c-45.98-0.036-83.384-37.508-83.38-83.532c-0.016-22.352,8.668-43.348,24.452-59.128
				c15.72-15.716,36.712-24.368,59.124-24.368c0.024,0,0.052,0,0.08,0c22.56,0.02,43.64,8.784,59.364,24.684
				c15.596,15.764,24.176,36.708,24.152,58.96C192.449,171.002,154.901,208.39,108.773,208.39z"/>
			<path d="M100.497,180.826c-0.232-0.12-0.5-0.004-0.6,0.216c-1.692,3.652-3.8,6.792-6.272,9.336
				c-0.176,0.18-0.172,0.468,0.008,0.64c0.088,0.084,0.204,0.128,0.316,0.128c0.116,0,0.236-0.048,0.324-0.136
				c2.544-2.616,4.716-5.84,6.444-9.584C100.821,181.198,100.725,180.93,100.497,180.826z"/>
		</g>
	</g>
</g>
</svg>